<?xml version="1.0" encoding="utf-8" standalone="no"?>
<!DOCTYPE svg PUBLIC "-//W3C//DTD SVG 1.1//EN"
  "http://www.w3.org/Graphics/SVG/1.1/DTD/svg11.dtd">
<svg xmlns:xlink="http://www.w3.org/1999/xlink" width="576pt" height="360pt" viewBox="0 0 576 360" xmlns="http://www.w3.org/2000/svg" version="1.1">
 <metadata>
  <rdf:RDF xmlns:dc="http://purl.org/dc/elements/1.1/" xmlns:cc="http://creativecommons.org/ns#" xmlns:rdf="http://www.w3.org/1999/02/22-rdf-syntax-ns#">
   <cc:Work>
    <dc:type rdf:resource="http://purl.org/dc/dcmitype/StillImage"/>
    <dc:date>2024-09-09T13:26:56.026357</dc:date>
    <dc:format>image/svg+xml</dc:format>
    <dc:creator>
     <cc:Agent>
      <dc:title>Matplotlib v3.5.1, https://matplotlib.org/</dc:title>
     </cc:Agent>
    </dc:creator>
   </cc:Work>
  </rdf:RDF>
 </metadata>
 <defs>
  <style type="text/css">*{stroke-linejoin: round; stroke-linecap: butt}</style>
 </defs>
 <g id="figure_1">
  <g id="patch_1">
   <path d="M 0 360 
L 576 360 
L 576 0 
L 0 0 
z
" style="fill: #ffffff"/>
  </g>
  <g id="axes_1">
   <g id="patch_2">
    <path d="M 72 280.8 
L 518.4 280.8 
L 518.4 43.2 
L 72 43.2 
z
" style="fill: #ffffff"/>
   </g>
   <g id="line2d_1">
    <path d="M 140.676923 280.8 
L 140.676923 43.2 
" clip-path="url(#pe0f359e0cd)" style="fill: none; stroke-dasharray: 2.59,1.12; stroke-dashoffset: 0; stroke: #d3d3d3; stroke-width: 0.7"/>
   </g>
   <g id="line2d_2">
    <path d="M 175.015385 280.8 
L 175.015385 43.2 
" clip-path="url(#pe0f359e0cd)" style="fill: none; stroke-dasharray: 2.59,1.12; stroke-dashoffset: 0; stroke: #d3d3d3; stroke-width: 0.7"/>
   </g>
   <g id="line2d_3">
    <path d="M 209.353846 280.8 
L 209.353846 43.2 
" clip-path="url(#pe0f359e0cd)" style="fill: none; stroke-dasharray: 2.59,1.12; stroke-dashoffset: 0; stroke: #d3d3d3; stroke-width: 0.7"/>
   </g>
   <g id="line2d_4">
    <path d="M 243.692308 280.8 
L 243.692308 43.2 
" clip-path="url(#pe0f359e0cd)" style="fill: none; stroke-dasharray: 2.59,1.12; stroke-dashoffset: 0; stroke: #d3d3d3; stroke-width: 0.7"/>
   </g>
   <g id="line2d_5">
    <path d="M 278.030769 280.8 
L 278.030769 43.2 
" clip-path="url(#pe0f359e0cd)" style="fill: none; stroke-dasharray: 2.59,1.12; stroke-dashoffset: 0; stroke: #d3d3d3; stroke-width: 0.7"/>
   </g>
   <g id="line2d_6">
    <path d="M 312.369231 280.8 
L 312.369231 43.2 
" clip-path="url(#pe0f359e0cd)" style="fill: none; stroke-dasharray: 2.59,1.12; stroke-dashoffset: 0; stroke: #d3d3d3; stroke-width: 0.7"/>
   </g>
   <g id="line2d_7">
    <path d="M 346.707692 280.8 
L 346.707692 43.2 
" clip-path="url(#pe0f359e0cd)" style="fill: none; stroke-dasharray: 2.59,1.12; stroke-dashoffset: 0; stroke: #d3d3d3; stroke-width: 0.7"/>
   </g>
   <g id="line2d_8">
    <path d="M 381.046154 280.8 
L 381.046154 43.2 
" clip-path="url(#pe0f359e0cd)" style="fill: none; stroke-dasharray: 2.59,1.12; stroke-dashoffset: 0; stroke: #d3d3d3; stroke-width: 0.7"/>
   </g>
   <g id="line2d_9">
    <path d="M 415.384615 280.8 
L 415.384615 43.2 
" clip-path="url(#pe0f359e0cd)" style="fill: none; stroke-dasharray: 2.59,1.12; stroke-dashoffset: 0; stroke: #d3d3d3; stroke-width: 0.7"/>
   </g>
   <g id="line2d_10">
    <path d="M 449.723077 280.8 
L 449.723077 43.2 
" clip-path="url(#pe0f359e0cd)" style="fill: none; stroke-dasharray: 2.59,1.12; stroke-dashoffset: 0; stroke: #d3d3d3; stroke-width: 0.7"/>
   </g>
   <g id="line2d_11">
    <path d="M 501.230769 280.8 
L 501.230769 43.2 
" clip-path="url(#pe0f359e0cd)" style="fill: none; stroke-dasharray: 2.59,1.12; stroke-dashoffset: 0; stroke: #d3d3d3; stroke-width: 0.7"/>
   </g>
   <g id="line2d_12">
    <path d="M 89.169231 280.8 
L 89.169231 43.2 
" clip-path="url(#pe0f359e0cd)" style="fill: none; stroke-dasharray: 2.59,1.12; stroke-dashoffset: 0; stroke: #d3d3d3; stroke-width: 0.7"/>
   </g>
   <g id="line2d_13">
    <path d="M 72 246.757765 
L 518.4 246.757765 
" clip-path="url(#pe0f359e0cd)" style="fill: none; stroke-dasharray: 2.59,1.12; stroke-dashoffset: 0; stroke: #d3d3d3; stroke-width: 0.7"/>
   </g>
   <g id="line2d_14">
    <path d="M 72 192.391635 
L 518.4 192.391635 
" clip-path="url(#pe0f359e0cd)" style="fill: none; stroke-dasharray: 2.59,1.12; stroke-dashoffset: 0; stroke: #d3d3d3; stroke-width: 0.7"/>
   </g>
   <g id="line2d_15">
    <path d="M 72 138.025505 
L 518.4 138.025505 
" clip-path="url(#pe0f359e0cd)" style="fill: none; stroke-dasharray: 2.59,1.12; stroke-dashoffset: 0; stroke: #d3d3d3; stroke-width: 0.7"/>
   </g>
   <g id="line2d_16">
    <path d="M 72 83.659375 
L 518.4 83.659375 
" clip-path="url(#pe0f359e0cd)" style="fill: none; stroke-dasharray: 2.59,1.12; stroke-dashoffset: 0; stroke: #d3d3d3; stroke-width: 0.7"/>
   </g>
   <g id="line2d_17">
    <path d="M 140.676923 189.072825 
L 175.015385 246.459085 
L 209.353846 232.366386 
L 243.692308 137.453649 
L 278.030769 207.959438 
L 312.369231 157.714067 
L 346.707692 227.653241 
L 381.046154 238.46378 
L 415.384615 212.279163 
L 449.723077 148.535472 
" clip-path="url(#pe0f359e0cd)" style="fill: none; stroke: #949494; stroke-opacity: 0.7; stroke-width: 1.5; stroke-linecap: square"/>
   </g>
   <g id="PathCollection_1">
    <defs>
     <path id="m3331019ead" d="M 0 4.472136 
C 1.186024 4.472136 2.323632 4.000923 3.162278 3.162278 
C 4.000923 2.323632 4.472136 1.186024 4.472136 0 
C 4.472136 -1.186024 4.000923 -2.323632 3.162278 -3.162278 
C 2.323632 -4.000923 1.186024 -4.472136 0 -4.472136 
C -1.186024 -4.472136 -2.323632 -4.000923 -3.162278 -3.162278 
C -4.000923 -2.323632 -4.472136 -1.186024 -4.472136 0 
C -4.472136 1.186024 -4.000923 2.323632 -3.162278 3.162278 
C -2.323632 4.000923 -1.186024 4.472136 0 4.472136 
z
" style="stroke: #ffffff; stroke-width: 0.75"/>
    </defs>
    <g clip-path="url(#pe0f359e0cd)">
     <use xlink:href="#m3331019ead" x="140.676923" y="189.072825" style="fill: #949494; stroke: #ffffff; stroke-width: 0.75"/>
     <use xlink:href="#m3331019ead" x="175.015385" y="246.459085" style="fill: #949494; stroke: #ffffff; stroke-width: 0.75"/>
     <use xlink:href="#m3331019ead" x="209.353846" y="232.366386" style="fill: #949494; stroke: #ffffff; stroke-width: 0.75"/>
     <use xlink:href="#m3331019ead" x="243.692308" y="137.453649" style="fill: #949494; stroke: #ffffff; stroke-width: 0.75"/>
     <use xlink:href="#m3331019ead" x="278.030769" y="207.959438" style="fill: #949494; stroke: #ffffff; stroke-width: 0.75"/>
     <use xlink:href="#m3331019ead" x="312.369231" y="157.714067" style="fill: #949494; stroke: #ffffff; stroke-width: 0.75"/>
     <use xlink:href="#m3331019ead" x="346.707692" y="227.653241" style="fill: #949494; stroke: #ffffff; stroke-width: 0.75"/>
     <use xlink:href="#m3331019ead" x="381.046154" y="238.46378" style="fill: #949494; stroke: #ffffff; stroke-width: 0.75"/>
     <use xlink:href="#m3331019ead" x="415.384615" y="212.279163" style="fill: #949494; stroke: #ffffff; stroke-width: 0.75"/>
     <use xlink:href="#m3331019ead" x="449.723077" y="148.535472" style="fill: #949494; stroke: #ffffff; stroke-width: 0.75"/>
    </g>
   </g>
   <g id="PathCollection_2">
    <g clip-path="url(#pe0f359e0cd)">
     <use xlink:href="#m3331019ead" x="501.230769" y="107.473205" style="fill: #949494; stroke: #ffffff; stroke-width: 0.75"/>
    </g>
   </g>
   <g id="line2d_18">
    <path d="M 449.723077 148.535472 
L 501.230769 107.473205 
" clip-path="url(#pe0f359e0cd)" style="fill: none; stroke-dasharray: 5.55,2.4; stroke-dashoffset: 0; stroke: #949494; stroke-width: 1.5"/>
   </g>
   <g id="PathCollection_3">
    <g clip-path="url(#pe0f359e0cd)">
     <use xlink:href="#m3331019ead" x="89.169231" y="264.545408" style="fill: #949494; stroke: #ffffff; stroke-width: 0.75"/>
    </g>
   </g>
   <g id="line2d_19">
    <path d="M 89.169231 264.545408 
L 140.676923 189.072825 
" clip-path="url(#pe0f359e0cd)" style="fill: none; stroke-dasharray: 5.55,2.4; stroke-dashoffset: 0; stroke: #949494; stroke-width: 1.5"/>
   </g>
   <g id="matplotlib.axis_1">
    <g id="xtick_1">
     <g id="line2d_20">
      <defs>
       <path id="m5cf6a369a4" d="M 0 0 
L 0 3.5 
" style="stroke: #000000; stroke-width: 0.8"/>
      </defs>
      <g>
       <use xlink:href="#m5cf6a369a4" x="89.169231" y="280.8" style="stroke: #000000; stroke-width: 0.8"/>
      </g>
     </g>
     <g id="text_1">
      <!-- GT -->
      <g transform="translate(77.172512 300.290313)scale(0.18 -0.18)">
       <defs>
        <path id="LiberationSerif-47" d="M 4013 219 
Q 3650 100 3259 18 
Q 2869 -63 2419 -63 
Q 1922 -63 1523 73 
Q 1125 209 844 476 
Q 563 744 413 1137 
Q 263 1531 263 2047 
Q 263 3147 814 3692 
Q 1366 4238 2431 4238 
Q 2838 4238 3205 4188 
Q 3572 4138 3903 4050 
L 3903 3150 
L 3694 3150 
L 3609 3669 
Q 3394 3822 3092 3905 
Q 2791 3988 2456 3988 
Q 2091 3988 1805 3886 
Q 1519 3784 1322 3556 
Q 1125 3328 1020 2958 
Q 916 2588 916 2053 
Q 916 1513 1037 1152 
Q 1159 791 1367 575 
Q 1575 359 1848 268 
Q 2122 178 2425 178 
Q 2578 178 2729 198 
Q 2881 219 3014 250 
Q 3147 281 3250 318 
Q 3353 356 3413 391 
L 3413 1581 
L 2875 1663 
L 2875 1831 
L 4422 1831 
L 4422 1663 
L 4013 1581 
L 4013 219 
z
" transform="scale(0.015625)"/>
        <path id="LiberationSerif-54" d="M 984 0 
L 984 166 
L 1650 250 
L 1650 3922 
L 1491 3922 
Q 1081 3922 803 3903 
Q 525 3884 409 3859 
L 325 3206 
L 116 3206 
L 116 4191 
L 3803 4191 
L 3803 3206 
L 3591 3206 
L 3506 3859 
Q 3450 3872 3339 3881 
Q 3228 3891 3081 3898 
Q 2934 3906 2761 3911 
Q 2588 3916 2406 3916 
L 2253 3916 
L 2253 250 
L 2919 166 
L 2919 0 
L 984 0 
z
" transform="scale(0.015625)"/>
       </defs>
       <use xlink:href="#LiberationSerif-47"/>
       <use xlink:href="#LiberationSerif-54" x="72.216797"/>
      </g>
     </g>
    </g>
    <g id="xtick_2">
     <g id="line2d_21">
      <g>
       <use xlink:href="#m5cf6a369a4" x="140.676923" y="280.8" style="stroke: #000000; stroke-width: 0.8"/>
      </g>
     </g>
     <g id="text_2">
      <!-- 1 -->
      <g transform="translate(136.176923 300.290313)scale(0.18 -0.18)">
       <defs>
        <path id="LiberationSerif-31" d="M 1959 250 
L 2816 166 
L 2816 0 
L 563 0 
L 563 166 
L 1422 250 
L 1422 3669 
L 575 3366 
L 575 3531 
L 1797 4225 
L 1959 4225 
L 1959 250 
z
" transform="scale(0.015625)"/>
       </defs>
       <use xlink:href="#LiberationSerif-31"/>
      </g>
     </g>
    </g>
    <g id="xtick_3">
     <g id="line2d_22">
      <g>
       <use xlink:href="#m5cf6a369a4" x="175.015385" y="280.8" style="stroke: #000000; stroke-width: 0.8"/>
      </g>
     </g>
     <g id="text_3">
      <!-- 2 -->
      <g transform="translate(170.515385 300.290313)scale(0.18 -0.18)">
       <defs>
        <path id="LiberationSerif-32" d="M 2847 0 
L 281 0 
L 281 459 
Q 597 753 861 986 
Q 1125 1219 1336 1420 
Q 1547 1622 1705 1806 
Q 1863 1991 1967 2191 
Q 2072 2391 2123 2622 
Q 2175 2853 2175 3144 
Q 2175 3550 1990 3762 
Q 1806 3975 1388 3975 
Q 1294 3975 1201 3961 
Q 1109 3947 1025 3923 
Q 941 3900 867 3870 
Q 794 3841 738 3809 
L 628 3297 
L 422 3297 
L 422 4103 
Q 659 4159 889 4198 
Q 1119 4238 1388 4238 
Q 2075 4238 2420 3952 
Q 2766 3666 2766 3144 
Q 2766 2888 2698 2669 
Q 2631 2450 2506 2248 
Q 2381 2047 2200 1851 
Q 2019 1656 1787 1447 
Q 1556 1238 1279 1002 
Q 1003 766 691 481 
L 2847 481 
L 2847 0 
z
" transform="scale(0.015625)"/>
       </defs>
       <use xlink:href="#LiberationSerif-32"/>
      </g>
     </g>
    </g>
    <g id="xtick_4">
     <g id="line2d_23">
      <g>
       <use xlink:href="#m5cf6a369a4" x="209.353846" y="280.8" style="stroke: #000000; stroke-width: 0.8"/>
      </g>
     </g>
     <g id="text_4">
      <!-- 3 -->
      <g transform="translate(204.853846 300.290313)scale(0.18 -0.18)">
       <defs>
        <path id="LiberationSerif-33" d="M 2950 1141 
Q 2950 856 2850 632 
Q 2750 409 2561 254 
Q 2372 100 2095 18 
Q 1819 -63 1466 -63 
Q 1156 -63 865 -25 
Q 575 13 341 72 
L 306 953 
L 513 953 
L 653 366 
Q 709 334 800 303 
Q 891 272 995 248 
Q 1100 225 1211 211 
Q 1322 197 1416 197 
Q 1706 197 1892 269 
Q 2078 341 2186 470 
Q 2294 600 2334 779 
Q 2375 959 2375 1172 
Q 2375 1416 2306 1577 
Q 2238 1738 2117 1836 
Q 1997 1934 1836 1979 
Q 1675 2025 1491 2034 
L 1044 2059 
L 1044 2316 
L 1491 2344 
Q 1844 2363 2012 2563 
Q 2181 2763 2181 3169 
Q 2181 3372 2139 3523 
Q 2097 3675 2006 3775 
Q 1916 3875 1770 3925 
Q 1625 3975 1416 3975 
Q 1322 3975 1226 3961 
Q 1131 3947 1043 3923 
Q 956 3900 881 3870 
Q 806 3841 750 3809 
L 641 3297 
L 434 3297 
L 434 4103 
Q 544 4131 653 4156 
Q 763 4181 881 4198 
Q 1000 4216 1131 4227 
Q 1263 4238 1416 4238 
Q 2075 4238 2417 3984 
Q 2759 3731 2759 3206 
Q 2759 3009 2706 2839 
Q 2653 2669 2540 2537 
Q 2428 2406 2254 2317 
Q 2081 2228 1844 2194 
Q 2413 2128 2681 1867 
Q 2950 1606 2950 1141 
z
" transform="scale(0.015625)"/>
       </defs>
       <use xlink:href="#LiberationSerif-33"/>
      </g>
     </g>
    </g>
    <g id="xtick_5">
     <g id="line2d_24">
      <g>
       <use xlink:href="#m5cf6a369a4" x="243.692308" y="280.8" style="stroke: #000000; stroke-width: 0.8"/>
      </g>
     </g>
     <g id="text_5">
      <!-- 4 -->
      <g transform="translate(239.192308 300.290313)scale(0.18 -0.18)">
       <defs>
        <path id="LiberationSerif-34" d="M 2531 922 
L 2531 0 
L 1994 0 
L 1994 922 
L 125 922 
L 125 1338 
L 2172 4213 
L 2531 4213 
L 2531 1369 
L 3100 1369 
L 3100 922 
L 2531 922 
z
M 1994 3478 
L 1978 3478 
L 478 1369 
L 1994 1369 
L 1994 3478 
z
" transform="scale(0.015625)"/>
       </defs>
       <use xlink:href="#LiberationSerif-34"/>
      </g>
     </g>
    </g>
    <g id="xtick_6">
     <g id="line2d_25">
      <g>
       <use xlink:href="#m5cf6a369a4" x="278.030769" y="280.8" style="stroke: #000000; stroke-width: 0.8"/>
      </g>
     </g>
     <g id="text_6">
      <!-- 5 -->
      <g transform="translate(273.530769 300.290313)scale(0.18 -0.18)">
       <defs>
        <path id="LiberationSerif-35" d="M 1516 2450 
Q 1866 2450 2134 2379 
Q 2403 2309 2584 2162 
Q 2766 2016 2858 1789 
Q 2950 1563 2950 1247 
Q 2950 950 2861 709 
Q 2772 469 2587 297 
Q 2403 125 2123 31 
Q 1844 -63 1466 -63 
Q 1172 -63 908 -30 
Q 644 3 406 72 
L 372 953 
L 578 953 
L 719 366 
Q 775 334 854 303 
Q 934 272 1028 248 
Q 1122 225 1222 211 
Q 1322 197 1416 197 
Q 1706 197 1892 270 
Q 2078 344 2186 478 
Q 2294 613 2334 800 
Q 2375 988 2375 1216 
Q 2375 1459 2333 1640 
Q 2291 1822 2178 1944 
Q 2066 2066 1870 2127 
Q 1675 2188 1369 2188 
Q 1184 2188 1043 2163 
Q 903 2138 813 2113 
L 513 2113 
L 513 4191 
L 2638 4191 
L 2638 3713 
L 794 3713 
L 794 2375 
Q 850 2388 920 2400 
Q 991 2413 1077 2423 
Q 1163 2434 1270 2442 
Q 1378 2450 1516 2450 
z
" transform="scale(0.015625)"/>
       </defs>
       <use xlink:href="#LiberationSerif-35"/>
      </g>
     </g>
    </g>
    <g id="xtick_7">
     <g id="line2d_26">
      <g>
       <use xlink:href="#m5cf6a369a4" x="312.369231" y="280.8" style="stroke: #000000; stroke-width: 0.8"/>
      </g>
     </g>
     <g id="text_7">
      <!-- 6 -->
      <g transform="translate(307.869231 300.290313)scale(0.18 -0.18)">
       <defs>
        <path id="LiberationSerif-36" d="M 3009 1300 
Q 3009 975 2926 722 
Q 2844 469 2681 294 
Q 2519 119 2280 28 
Q 2041 -63 1728 -63 
Q 1384 -63 1114 71 
Q 844 206 658 473 
Q 472 741 373 1139 
Q 275 1538 275 2069 
Q 275 2638 404 3047 
Q 534 3456 751 3722 
Q 969 3988 1253 4113 
Q 1538 4238 1844 4238 
Q 2078 4238 2318 4206 
Q 2559 4175 2753 4128 
L 2753 3406 
L 2547 3406 
L 2438 3834 
Q 2381 3866 2307 3891 
Q 2234 3916 2154 3934 
Q 2075 3953 1995 3964 
Q 1916 3975 1844 3975 
Q 1622 3975 1445 3869 
Q 1269 3763 1141 3547 
Q 1013 3331 939 3006 
Q 866 2681 853 2241 
Q 1078 2359 1345 2434 
Q 1613 2509 1875 2509 
Q 2138 2509 2348 2436 
Q 2559 2363 2706 2213 
Q 2853 2063 2931 1834 
Q 3009 1606 3009 1300 
z
M 1716 184 
Q 1916 184 2053 250 
Q 2191 316 2275 448 
Q 2359 581 2395 779 
Q 2431 978 2431 1241 
Q 2431 1753 2270 1981 
Q 2109 2209 1759 2209 
Q 1547 2209 1314 2168 
Q 1081 2128 850 2053 
Q 850 1603 898 1256 
Q 947 909 1053 670 
Q 1159 431 1321 307 
Q 1484 184 1716 184 
z
" transform="scale(0.015625)"/>
       </defs>
       <use xlink:href="#LiberationSerif-36"/>
      </g>
     </g>
    </g>
    <g id="xtick_8">
     <g id="line2d_27">
      <g>
       <use xlink:href="#m5cf6a369a4" x="346.707692" y="280.8" style="stroke: #000000; stroke-width: 0.8"/>
      </g>
     </g>
     <g id="text_8">
      <!-- 7 -->
      <g transform="translate(342.207692 300.290313)scale(0.18 -0.18)">
       <defs>
        <path id="LiberationSerif-37" d="M 628 3200 
L 422 3200 
L 422 4191 
L 3016 4191 
L 3016 3950 
L 1147 0 
L 744 0 
L 2578 3713 
L 738 3713 
L 628 3200 
z
" transform="scale(0.015625)"/>
       </defs>
       <use xlink:href="#LiberationSerif-37"/>
      </g>
     </g>
    </g>
    <g id="xtick_9">
     <g id="line2d_28">
      <g>
       <use xlink:href="#m5cf6a369a4" x="381.046154" y="280.8" style="stroke: #000000; stroke-width: 0.8"/>
      </g>
     </g>
     <g id="text_9">
      <!-- 8 -->
      <g transform="translate(376.546154 300.290313)scale(0.18 -0.18)">
       <defs>
        <path id="LiberationSerif-38" d="M 2828 3169 
Q 2828 2825 2661 2586 
Q 2494 2347 2209 2222 
Q 2378 2159 2515 2059 
Q 2653 1959 2751 1823 
Q 2850 1688 2903 1514 
Q 2956 1341 2956 1131 
Q 2956 538 2622 237 
Q 2288 -63 1581 -63 
Q 913 -63 578 232 
Q 244 528 244 1131 
Q 244 1547 444 1820 
Q 644 2094 984 2222 
Q 713 2347 542 2584 
Q 372 2822 372 3169 
Q 372 3416 448 3617 
Q 525 3819 678 3961 
Q 831 4103 1062 4179 
Q 1294 4256 1606 4256 
Q 1906 4256 2134 4181 
Q 2363 4106 2517 3965 
Q 2672 3825 2750 3623 
Q 2828 3422 2828 3169 
z
M 2394 1131 
Q 2394 1359 2353 1536 
Q 2313 1713 2217 1834 
Q 2122 1956 1965 2018 
Q 1809 2081 1581 2081 
Q 1350 2081 1200 2018 
Q 1050 1956 962 1834 
Q 875 1713 840 1536 
Q 806 1359 806 1131 
Q 806 900 840 723 
Q 875 547 962 428 
Q 1050 309 1200 246 
Q 1350 184 1581 184 
Q 1809 184 1965 246 
Q 2122 309 2217 428 
Q 2313 547 2353 723 
Q 2394 900 2394 1131 
z
M 2266 3169 
Q 2266 3353 2233 3506 
Q 2200 3659 2122 3770 
Q 2044 3881 1912 3943 
Q 1781 4006 1588 4006 
Q 1394 4006 1267 3943 
Q 1141 3881 1067 3770 
Q 994 3659 964 3506 
Q 934 3353 934 3169 
Q 934 2981 964 2831 
Q 994 2681 1067 2575 
Q 1141 2469 1267 2412 
Q 1394 2356 1588 2356 
Q 1781 2356 1912 2412 
Q 2044 2469 2122 2575 
Q 2200 2681 2233 2831 
Q 2266 2981 2266 3169 
z
" transform="scale(0.015625)"/>
       </defs>
       <use xlink:href="#LiberationSerif-38"/>
      </g>
     </g>
    </g>
    <g id="xtick_10">
     <g id="line2d_29">
      <g>
       <use xlink:href="#m5cf6a369a4" x="415.384615" y="280.8" style="stroke: #000000; stroke-width: 0.8"/>
      </g>
     </g>
     <g id="text_10">
      <!-- 9 -->
      <g transform="translate(410.884615 300.290313)scale(0.18 -0.18)">
       <defs>
        <path id="LiberationSerif-39" d="M 206 2913 
Q 206 3234 300 3482 
Q 394 3731 569 3898 
Q 744 4066 994 4152 
Q 1244 4238 1556 4238 
Q 1913 4238 2172 4113 
Q 2431 3988 2601 3727 
Q 2772 3466 2855 3062 
Q 2938 2659 2938 2106 
Q 2938 1703 2877 1386 
Q 2816 1069 2706 828 
Q 2597 588 2445 417 
Q 2294 247 2112 140 
Q 1931 34 1726 -14 
Q 1522 -63 1306 -63 
Q 1031 -63 807 -36 
Q 584 -9 372 44 
L 372 769 
L 575 769 
L 684 319 
Q 744 291 817 269 
Q 891 247 970 230 
Q 1050 213 1133 205 
Q 1216 197 1294 197 
Q 1513 197 1702 289 
Q 1891 381 2031 587 
Q 2172 794 2258 1123 
Q 2344 1453 2359 1928 
Q 2153 1813 1912 1738 
Q 1672 1663 1394 1663 
Q 1131 1663 912 1742 
Q 694 1822 536 1980 
Q 378 2138 292 2372 
Q 206 2606 206 2913 
z
M 1563 3988 
Q 1159 3988 970 3708 
Q 781 3428 781 2900 
Q 781 2644 832 2466 
Q 884 2288 982 2177 
Q 1081 2066 1223 2016 
Q 1366 1966 1550 1966 
Q 1756 1966 1962 2009 
Q 2169 2053 2363 2131 
Q 2363 2591 2319 2939 
Q 2275 3288 2181 3520 
Q 2088 3753 1934 3870 
Q 1781 3988 1563 3988 
z
" transform="scale(0.015625)"/>
       </defs>
       <use xlink:href="#LiberationSerif-39"/>
      </g>
     </g>
    </g>
    <g id="xtick_11">
     <g id="line2d_30">
      <g>
       <use xlink:href="#m5cf6a369a4" x="449.723077" y="280.8" style="stroke: #000000; stroke-width: 0.8"/>
      </g>
     </g>
     <g id="text_11">
      <!-- 10 -->
      <g transform="translate(440.723077 300.290313)scale(0.18 -0.18)">
       <defs>
        <path id="LiberationSerif-30" d="M 2956 2113 
Q 2956 1588 2873 1181 
Q 2791 775 2622 498 
Q 2453 222 2193 79 
Q 1934 -63 1581 -63 
Q 919 -63 581 493 
Q 244 1050 244 2113 
Q 244 3153 581 3704 
Q 919 4256 1606 4256 
Q 2269 4256 2612 3711 
Q 2956 3166 2956 2113 
z
M 2381 2113 
Q 2381 2563 2342 2916 
Q 2303 3269 2211 3511 
Q 2119 3753 1964 3879 
Q 1809 4006 1581 4006 
Q 1350 4006 1201 3879 
Q 1053 3753 968 3511 
Q 884 3269 851 2916 
Q 819 2563 819 2113 
Q 819 1663 851 1305 
Q 884 947 968 698 
Q 1053 450 1201 317 
Q 1350 184 1581 184 
Q 1809 184 1964 317 
Q 2119 450 2211 698 
Q 2303 947 2342 1305 
Q 2381 1663 2381 2113 
z
" transform="scale(0.015625)"/>
       </defs>
       <use xlink:href="#LiberationSerif-31"/>
       <use xlink:href="#LiberationSerif-30" x="50"/>
      </g>
     </g>
    </g>
    <g id="xtick_12">
     <g id="line2d_31">
      <g>
       <use xlink:href="#m5cf6a369a4" x="501.230769" y="280.8" style="stroke: #000000; stroke-width: 0.8"/>
      </g>
     </g>
     <g id="text_12">
      <!--   None -->
      <g transform="translate(477.235925 300.290313)scale(0.18 -0.18)">
       <defs>
        <path id="LiberationSerif-20" transform="scale(0.015625)"/>
        <path id="LiberationSerif-4e" d="M 3609 3944 
L 3047 4025 
L 3047 4191 
L 4475 4191 
L 4475 4025 
L 3938 3944 
L 3938 0 
L 3634 0 
L 1050 3769 
L 1050 250 
L 1613 166 
L 1613 0 
L 184 0 
L 184 166 
L 722 250 
L 722 3944 
L 184 4025 
L 184 4191 
L 1453 4191 
L 3609 1088 
L 3609 3944 
z
" transform="scale(0.015625)"/>
        <path id="LiberationSerif-6f" d="M 2956 1484 
Q 2956 738 2622 337 
Q 2288 -63 1581 -63 
Q 919 -63 581 334 
Q 244 731 244 1484 
Q 244 2228 581 2622 
Q 919 3016 1606 3016 
Q 2275 3016 2615 2630 
Q 2956 2244 2956 1484 
z
M 2394 1484 
Q 2394 1788 2353 2027 
Q 2313 2266 2217 2430 
Q 2122 2594 1965 2680 
Q 1809 2766 1581 2766 
Q 1350 2766 1200 2680 
Q 1050 2594 962 2430 
Q 875 2266 840 2027 
Q 806 1788 806 1484 
Q 806 1178 840 937 
Q 875 697 962 530 
Q 1050 363 1200 273 
Q 1350 184 1581 184 
Q 1809 184 1965 273 
Q 2122 363 2217 530 
Q 2313 697 2353 937 
Q 2394 1178 2394 1484 
z
" transform="scale(0.015625)"/>
        <path id="LiberationSerif-6e" d="M 1013 2700 
Q 1100 2750 1220 2806 
Q 1341 2863 1472 2909 
Q 1603 2956 1734 2986 
Q 1866 3016 1978 3016 
Q 2147 3016 2287 2969 
Q 2428 2922 2529 2819 
Q 2631 2716 2689 2550 
Q 2747 2384 2747 2150 
L 2747 219 
L 3103 141 
L 3103 0 
L 1838 0 
L 1838 141 
L 2228 219 
L 2228 2094 
Q 2228 2353 2101 2501 
Q 1975 2650 1709 2650 
Q 1622 2650 1525 2640 
Q 1428 2631 1334 2618 
Q 1241 2606 1158 2589 
Q 1075 2572 1019 2559 
L 1019 219 
L 1416 141 
L 1416 0 
L 147 0 
L 147 141 
L 500 219 
L 500 2719 
L 147 2797 
L 147 2938 
L 984 2938 
L 1013 2700 
z
" transform="scale(0.015625)"/>
        <path id="LiberationSerif-65" d="M 813 1478 
L 813 1422 
Q 813 1194 845 984 
Q 878 775 976 614 
Q 1075 453 1253 358 
Q 1431 263 1722 263 
Q 1816 263 1919 270 
Q 2022 278 2125 290 
Q 2228 303 2325 318 
Q 2422 334 2503 353 
L 2503 178 
Q 2431 131 2329 89 
Q 2228 47 2106 12 
Q 1984 -22 1846 -42 
Q 1709 -63 1569 -63 
Q 1203 -63 951 37 
Q 700 138 544 334 
Q 388 531 319 822 
Q 250 1113 250 1491 
Q 250 2259 572 2637 
Q 894 3016 1491 3016 
Q 1725 3016 1929 2953 
Q 2134 2891 2287 2744 
Q 2441 2597 2530 2350 
Q 2619 2103 2619 1734 
L 2619 1478 
L 813 1478 
z
M 1491 2766 
Q 1316 2766 1189 2692 
Q 1063 2619 980 2484 
Q 897 2350 858 2158 
Q 819 1966 819 1728 
L 2075 1728 
Q 2075 1966 2048 2158 
Q 2022 2350 1955 2484 
Q 1888 2619 1775 2692 
Q 1663 2766 1491 2766 
z
" transform="scale(0.015625)"/>
       </defs>
       <use xlink:href="#LiberationSerif-20"/>
       <use xlink:href="#LiberationSerif-20" x="25"/>
       <use xlink:href="#LiberationSerif-4e" x="50"/>
       <use xlink:href="#LiberationSerif-6f" x="122.216797"/>
       <use xlink:href="#LiberationSerif-6e" x="172.216797"/>
       <use xlink:href="#LiberationSerif-65" x="222.216797"/>
      </g>
     </g>
    </g>
    <g id="text_13">
     <!-- Noise of initialization (m) -->
     <g transform="translate(201.473437 320.796875)scale(0.18 -0.18)">
      <defs>
       <path id="LiberationSerif-69" d="M 1184 3897 
Q 1184 3828 1157 3767 
Q 1131 3706 1084 3659 
Q 1038 3613 975 3586 
Q 913 3559 844 3559 
Q 775 3559 714 3586 
Q 653 3613 606 3659 
Q 559 3706 532 3767 
Q 506 3828 506 3897 
Q 506 3966 532 4028 
Q 559 4091 606 4137 
Q 653 4184 714 4211 
Q 775 4238 844 4238 
Q 913 4238 975 4211 
Q 1038 4184 1084 4137 
Q 1131 4091 1157 4028 
Q 1184 3966 1184 3897 
z
M 1153 219 
L 1656 141 
L 1656 0 
L 134 0 
L 134 141 
L 634 219 
L 634 2719 
L 219 2797 
L 219 2938 
L 1153 2938 
L 1153 219 
z
" transform="scale(0.015625)"/>
       <path id="LiberationSerif-73" d="M 2259 825 
Q 2259 628 2198 464 
Q 2138 300 2006 183 
Q 1875 66 1667 1 
Q 1459 -63 1166 -63 
Q 1019 -63 876 -45 
Q 734 -28 612 -4 
Q 491 19 400 44 
Q 309 69 269 84 
L 269 806 
L 409 806 
L 563 397 
Q 659 309 812 246 
Q 966 184 1172 184 
Q 1463 184 1620 311 
Q 1778 438 1778 703 
Q 1778 859 1712 961 
Q 1647 1063 1540 1131 
Q 1434 1200 1298 1245 
Q 1163 1291 1020 1337 
Q 878 1384 742 1443 
Q 606 1503 500 1597 
Q 394 1691 328 1831 
Q 263 1972 263 2181 
Q 263 2381 334 2537 
Q 406 2694 536 2800 
Q 666 2906 845 2961 
Q 1025 3016 1241 3016 
Q 1453 3016 1656 2986 
Q 1859 2956 2047 2919 
L 2047 2278 
L 1900 2278 
L 1769 2619 
Q 1688 2691 1547 2728 
Q 1406 2766 1247 2766 
Q 994 2766 861 2641 
Q 728 2516 728 2303 
Q 728 2159 793 2067 
Q 859 1975 967 1911 
Q 1075 1847 1212 1800 
Q 1350 1753 1494 1703 
Q 1638 1653 1775 1589 
Q 1913 1525 2020 1425 
Q 2128 1325 2193 1181 
Q 2259 1038 2259 825 
z
" transform="scale(0.015625)"/>
       <path id="LiberationSerif-66" d="M 703 2675 
L 197 2675 
L 197 2828 
L 703 2950 
L 703 3156 
Q 703 3488 770 3739 
Q 838 3991 964 4161 
Q 1091 4331 1273 4418 
Q 1456 4506 1684 4506 
Q 1825 4506 1934 4489 
Q 2044 4472 2131 4447 
L 2131 3806 
L 1978 3806 
L 1838 4191 
Q 1788 4222 1728 4239 
Q 1669 4256 1581 4256 
Q 1472 4256 1403 4207 
Q 1334 4159 1293 4057 
Q 1253 3956 1237 3800 
Q 1222 3644 1222 3425 
L 1222 2938 
L 2003 2938 
L 2003 2675 
L 1222 2675 
L 1222 244 
L 1856 141 
L 1856 0 
L 269 0 
L 269 141 
L 703 244 
L 703 2675 
z
" transform="scale(0.015625)"/>
       <path id="LiberationSerif-74" d="M 1044 -63 
Q 744 -63 595 115 
Q 447 294 447 616 
L 447 2675 
L 63 2675 
L 63 2816 
L 453 2938 
L 769 3603 
L 966 3603 
L 966 2938 
L 1638 2938 
L 1638 2675 
L 966 2675 
L 966 672 
Q 966 469 1058 366 
Q 1150 263 1300 263 
Q 1416 263 1530 278 
Q 1644 294 1741 313 
L 1741 109 
Q 1694 78 1617 47 
Q 1541 16 1448 -7 
Q 1356 -31 1253 -47 
Q 1150 -63 1044 -63 
z
" transform="scale(0.015625)"/>
       <path id="LiberationSerif-61" d="M 1453 3003 
Q 1653 3003 1825 2965 
Q 1997 2928 2122 2837 
Q 2247 2747 2317 2592 
Q 2388 2438 2388 2203 
L 2388 219 
L 2753 141 
L 2753 0 
L 1947 0 
L 1888 294 
Q 1841 247 1761 184 
Q 1681 122 1568 67 
Q 1456 13 1307 -25 
Q 1159 -63 978 -63 
Q 766 -63 620 3 
Q 475 69 387 186 
Q 300 303 262 464 
Q 225 625 225 813 
Q 225 1006 272 1148 
Q 319 1291 403 1387 
Q 488 1484 602 1545 
Q 716 1606 848 1640 
Q 981 1675 1129 1687 
Q 1278 1700 1428 1703 
L 1869 1716 
L 1869 2175 
Q 1869 2306 1847 2414 
Q 1825 2522 1773 2600 
Q 1722 2678 1634 2722 
Q 1547 2766 1416 2766 
Q 1266 2766 1112 2725 
Q 959 2684 844 2619 
L 738 2253 
L 563 2253 
L 563 2894 
Q 766 2938 983 2970 
Q 1200 3003 1453 3003 
z
M 1869 1497 
L 1459 1484 
Q 1275 1478 1140 1448 
Q 1006 1419 918 1347 
Q 831 1275 787 1150 
Q 744 1025 744 831 
Q 744 281 1191 281 
Q 1403 281 1558 329 
Q 1713 378 1869 453 
L 1869 1497 
z
" transform="scale(0.015625)"/>
       <path id="LiberationSerif-6c" d="M 1147 219 
L 1650 141 
L 1650 0 
L 128 0 
L 128 141 
L 628 219 
L 628 4225 
L 128 4300 
L 128 4441 
L 1147 4441 
L 1147 219 
z
" transform="scale(0.015625)"/>
       <path id="LiberationSerif-7a" d="M 172 0 
L 172 141 
L 1784 2688 
L 1094 2688 
Q 1006 2688 920 2680 
Q 834 2672 757 2658 
Q 681 2644 622 2623 
Q 563 2603 531 2578 
L 434 2156 
L 288 2156 
L 288 2938 
L 2456 2938 
L 2456 2784 
L 844 250 
L 1703 250 
Q 1788 250 1883 261 
Q 1978 272 2067 290 
Q 2156 309 2232 336 
Q 2309 363 2356 397 
L 2516 1013 
L 2663 1013 
L 2584 0 
L 172 0 
z
" transform="scale(0.015625)"/>
       <path id="LiberationSerif-28" d="M 884 1544 
Q 884 1281 896 1020 
Q 909 759 945 511 
Q 981 263 1051 30 
Q 1122 -203 1237 -408 
Q 1353 -613 1522 -789 
Q 1691 -966 1925 -1100 
L 1925 -1363 
Q 1506 -1141 1198 -880 
Q 891 -619 686 -276 
Q 481 66 381 509 
Q 281 953 281 1544 
Q 281 2134 381 2576 
Q 481 3019 686 3359 
Q 891 3700 1198 3959 
Q 1506 4219 1925 4441 
L 1925 4178 
Q 1572 3975 1365 3686 
Q 1159 3397 1051 3051 
Q 944 2706 914 2322 
Q 884 1938 884 1544 
z
" transform="scale(0.015625)"/>
       <path id="LiberationSerif-6d" d="M 1019 2700 
Q 1106 2750 1226 2806 
Q 1347 2863 1475 2909 
Q 1603 2956 1734 2986 
Q 1866 3016 1978 3016 
Q 2194 3016 2376 2934 
Q 2559 2853 2650 2675 
Q 2750 2731 2890 2792 
Q 3031 2853 3182 2903 
Q 3334 2953 3482 2984 
Q 3631 3016 3750 3016 
Q 3919 3016 4056 2969 
Q 4194 2922 4292 2819 
Q 4391 2716 4445 2550 
Q 4500 2384 4500 2150 
L 4500 219 
L 4878 141 
L 4878 0 
L 3544 0 
L 3544 141 
L 3981 219 
L 3981 2094 
Q 3981 2353 3864 2492 
Q 3747 2631 3481 2631 
Q 3400 2631 3292 2618 
Q 3184 2606 3076 2590 
Q 2969 2575 2870 2554 
Q 2772 2534 2706 2522 
Q 2759 2353 2759 2150 
L 2759 219 
L 3200 141 
L 3200 0 
L 1806 0 
L 1806 141 
L 2241 219 
L 2241 2094 
Q 2241 2353 2108 2492 
Q 1975 2631 1709 2631 
Q 1622 2631 1526 2622 
Q 1431 2613 1339 2600 
Q 1247 2588 1164 2570 
Q 1081 2553 1025 2541 
L 1025 219 
L 1466 141 
L 1466 0 
L 134 0 
L 134 141 
L 506 219 
L 506 2719 
L 134 2797 
L 134 2938 
L 994 2938 
L 1019 2700 
z
" transform="scale(0.015625)"/>
       <path id="LiberationSerif-29" d="M 206 -1363 
L 206 -1100 
Q 441 -966 609 -789 
Q 778 -613 893 -408 
Q 1009 -203 1079 30 
Q 1150 263 1186 511 
Q 1222 759 1234 1020 
Q 1247 1281 1247 1544 
Q 1247 1938 1217 2322 
Q 1188 2706 1080 3051 
Q 972 3397 765 3686 
Q 559 3975 206 4178 
L 206 4441 
Q 622 4219 931 3959 
Q 1241 3700 1445 3359 
Q 1650 3019 1750 2576 
Q 1850 2134 1850 1544 
Q 1850 953 1750 509 
Q 1650 66 1445 -276 
Q 1241 -619 931 -880 
Q 622 -1141 206 -1363 
z
" transform="scale(0.015625)"/>
      </defs>
      <use xlink:href="#LiberationSerif-4e"/>
      <use xlink:href="#LiberationSerif-6f" x="72.216797"/>
      <use xlink:href="#LiberationSerif-69" x="122.216797"/>
      <use xlink:href="#LiberationSerif-73" x="150"/>
      <use xlink:href="#LiberationSerif-65" x="188.916016"/>
      <use xlink:href="#LiberationSerif-20" x="233.300781"/>
      <use xlink:href="#LiberationSerif-6f" x="258.300781"/>
      <use xlink:href="#LiberationSerif-66" x="308.300781"/>
      <use xlink:href="#LiberationSerif-20" x="341.601562"/>
      <use xlink:href="#LiberationSerif-69" x="366.601562"/>
      <use xlink:href="#LiberationSerif-6e" x="394.384766"/>
      <use xlink:href="#LiberationSerif-69" x="444.384766"/>
      <use xlink:href="#LiberationSerif-74" x="472.167969"/>
      <use xlink:href="#LiberationSerif-69" x="499.951172"/>
      <use xlink:href="#LiberationSerif-61" x="527.734375"/>
      <use xlink:href="#LiberationSerif-6c" x="572.119141"/>
      <use xlink:href="#LiberationSerif-69" x="599.902344"/>
      <use xlink:href="#LiberationSerif-7a" x="627.685547"/>
      <use xlink:href="#LiberationSerif-61" x="672.070312"/>
      <use xlink:href="#LiberationSerif-74" x="716.455078"/>
      <use xlink:href="#LiberationSerif-69" x="744.238281"/>
      <use xlink:href="#LiberationSerif-6f" x="772.021484"/>
      <use xlink:href="#LiberationSerif-6e" x="822.021484"/>
      <use xlink:href="#LiberationSerif-20" x="872.021484"/>
      <use xlink:href="#LiberationSerif-28" x="897.021484"/>
      <use xlink:href="#LiberationSerif-6d" x="930.322266"/>
      <use xlink:href="#LiberationSerif-29" x="1008.105469"/>
     </g>
    </g>
   </g>
   <g id="matplotlib.axis_2">
    <g id="ytick_1">
     <g id="line2d_32">
      <defs>
       <path id="mf094a982b0" d="M 0 0 
L -3.5 0 
" style="stroke: #000000; stroke-width: 0.8"/>
      </defs>
      <g>
       <use xlink:href="#mf094a982b0" x="72" y="246.757765" style="stroke: #000000; stroke-width: 0.8"/>
      </g>
     </g>
     <g id="text_14">
      <!-- 2 -->
      <g transform="translate(56 253.002921)scale(0.18 -0.18)">
       <use xlink:href="#LiberationSerif-32"/>
      </g>
     </g>
    </g>
    <g id="ytick_2">
     <g id="line2d_33">
      <g>
       <use xlink:href="#mf094a982b0" x="72" y="192.391635" style="stroke: #000000; stroke-width: 0.8"/>
      </g>
     </g>
     <g id="text_15">
      <!-- 4 -->
      <g transform="translate(56 198.636791)scale(0.18 -0.18)">
       <use xlink:href="#LiberationSerif-34"/>
      </g>
     </g>
    </g>
    <g id="ytick_3">
     <g id="line2d_34">
      <g>
       <use xlink:href="#mf094a982b0" x="72" y="138.025505" style="stroke: #000000; stroke-width: 0.8"/>
      </g>
     </g>
     <g id="text_16">
      <!-- 6 -->
      <g transform="translate(56 144.270661)scale(0.18 -0.18)">
       <use xlink:href="#LiberationSerif-36"/>
      </g>
     </g>
    </g>
    <g id="ytick_4">
     <g id="line2d_35">
      <g>
       <use xlink:href="#mf094a982b0" x="72" y="83.659375" style="stroke: #000000; stroke-width: 0.8"/>
      </g>
     </g>
     <g id="text_17">
      <!-- 8 -->
      <g transform="translate(56 89.904531)scale(0.18 -0.18)">
       <use xlink:href="#LiberationSerif-38"/>
      </g>
     </g>
    </g>
    <g id="text_18">
     <!-- iATE(Translation) -->
     <g transform="translate(48.166562 227.659219)rotate(-90)scale(0.18 -0.18)">
      <defs>
       <path id="LiberationSerif-41" d="M 1441 166 
L 1441 0 
L 63 0 
L 63 166 
L 538 250 
L 1966 4225 
L 2559 4225 
L 4044 250 
L 4575 166 
L 4575 0 
L 2803 0 
L 2803 166 
L 3366 250 
L 2950 1459 
L 1300 1459 
L 878 250 
L 1441 166 
z
M 2113 3775 
L 1394 1741 
L 2853 1741 
L 2113 3775 
z
" transform="scale(0.015625)"/>
       <path id="LiberationSerif-45" d="M 184 166 
L 722 250 
L 722 3944 
L 184 4025 
L 184 4191 
L 3328 4191 
L 3328 3188 
L 3122 3188 
L 3022 3866 
Q 2922 3878 2780 3887 
Q 2638 3897 2491 3901 
Q 2344 3906 2212 3907 
Q 2081 3909 2009 3909 
L 1325 3909 
L 1325 2272 
L 2456 2272 
L 2553 2772 
L 2753 2772 
L 2753 1484 
L 2553 1484 
L 2456 1991 
L 1325 1991 
L 1325 281 
L 2150 281 
Q 2344 281 2516 286 
Q 2688 291 2825 297 
Q 2963 303 3061 312 
Q 3159 322 3206 331 
L 3384 1106 
L 3591 1106 
L 3531 0 
L 184 0 
L 184 166 
z
" transform="scale(0.015625)"/>
       <path id="LiberationSerif-72" d="M 2075 3016 
L 2075 2222 
L 1941 2222 
L 1759 2566 
Q 1672 2566 1572 2553 
Q 1472 2541 1372 2520 
Q 1272 2500 1180 2472 
Q 1088 2444 1019 2413 
L 1019 219 
L 1522 141 
L 1522 0 
L 128 0 
L 128 141 
L 500 219 
L 500 2719 
L 128 2797 
L 128 2938 
L 984 2938 
L 1013 2572 
Q 1084 2631 1209 2707 
Q 1334 2784 1479 2853 
Q 1625 2922 1770 2969 
Q 1916 3016 2028 3016 
L 2075 3016 
z
" transform="scale(0.015625)"/>
      </defs>
      <use xlink:href="#LiberationSerif-69"/>
      <use xlink:href="#LiberationSerif-41" x="27.783203"/>
      <use xlink:href="#LiberationSerif-54" x="88.875"/>
      <use xlink:href="#LiberationSerif-45" x="149.958984"/>
      <use xlink:href="#LiberationSerif-28" x="211.042969"/>
      <use xlink:href="#LiberationSerif-54" x="244.34375"/>
      <use xlink:href="#LiberationSerif-72" x="301.927734"/>
      <use xlink:href="#LiberationSerif-61" x="335.228516"/>
      <use xlink:href="#LiberationSerif-6e" x="379.613281"/>
      <use xlink:href="#LiberationSerif-73" x="429.613281"/>
      <use xlink:href="#LiberationSerif-6c" x="468.529297"/>
      <use xlink:href="#LiberationSerif-61" x="496.3125"/>
      <use xlink:href="#LiberationSerif-74" x="540.697266"/>
      <use xlink:href="#LiberationSerif-69" x="568.480469"/>
      <use xlink:href="#LiberationSerif-6f" x="596.263672"/>
      <use xlink:href="#LiberationSerif-6e" x="646.263672"/>
      <use xlink:href="#LiberationSerif-29" x="696.263672"/>
     </g>
    </g>
   </g>
   <g id="line2d_36">
    <path d="M 140.676923 242.115937 
L 175.015385 225.725475 
L 209.353846 249.251853 
L 243.692308 232.775765 
L 278.030769 208.57147 
L 312.369231 238.648185 
L 346.707692 258.241665 
L 381.046154 240.761296 
L 415.384615 221.167614 
L 449.723077 251.397458 
" clip-path="url(#pe0f359e0cd)" style="fill: none; stroke: #cc78bc; stroke-opacity: 0.7; stroke-width: 1.5; stroke-linecap: square"/>
   </g>
   <g id="PathCollection_4">
    <defs>
     <path id="m126d2c0a16" d="M -0 6.324555 
L 3.794733 0 
L 0 -6.324555 
L -3.794733 -0 
z
" style="stroke: #ffffff; stroke-width: 0.75"/>
    </defs>
    <g clip-path="url(#pe0f359e0cd)">
     <use xlink:href="#m126d2c0a16" x="140.676923" y="242.115937" style="fill: #cc78bc; stroke: #ffffff; stroke-width: 0.75"/>
     <use xlink:href="#m126d2c0a16" x="175.015385" y="225.725475" style="fill: #cc78bc; stroke: #ffffff; stroke-width: 0.75"/>
     <use xlink:href="#m126d2c0a16" x="209.353846" y="249.251853" style="fill: #cc78bc; stroke: #ffffff; stroke-width: 0.75"/>
     <use xlink:href="#m126d2c0a16" x="243.692308" y="232.775765" style="fill: #cc78bc; stroke: #ffffff; stroke-width: 0.75"/>
     <use xlink:href="#m126d2c0a16" x="278.030769" y="208.57147" style="fill: #cc78bc; stroke: #ffffff; stroke-width: 0.75"/>
     <use xlink:href="#m126d2c0a16" x="312.369231" y="238.648185" style="fill: #cc78bc; stroke: #ffffff; stroke-width: 0.75"/>
     <use xlink:href="#m126d2c0a16" x="346.707692" y="258.241665" style="fill: #cc78bc; stroke: #ffffff; stroke-width: 0.75"/>
     <use xlink:href="#m126d2c0a16" x="381.046154" y="240.761296" style="fill: #cc78bc; stroke: #ffffff; stroke-width: 0.75"/>
     <use xlink:href="#m126d2c0a16" x="415.384615" y="221.167614" style="fill: #cc78bc; stroke: #ffffff; stroke-width: 0.75"/>
     <use xlink:href="#m126d2c0a16" x="449.723077" y="251.397458" style="fill: #cc78bc; stroke: #ffffff; stroke-width: 0.75"/>
    </g>
   </g>
   <g id="PathCollection_5">
    <g clip-path="url(#pe0f359e0cd)">
     <use xlink:href="#m126d2c0a16" x="501.230769" y="223.821319" style="fill: #cc78bc; stroke: #ffffff; stroke-width: 0.75"/>
    </g>
   </g>
   <g id="line2d_37">
    <path d="M 449.723077 251.397458 
L 501.230769 223.821319 
" clip-path="url(#pe0f359e0cd)" style="fill: none; stroke-dasharray: 5.55,2.4; stroke-dashoffset: 0; stroke: #cc78bc; stroke-width: 1.5"/>
   </g>
   <g id="PathCollection_6">
    <g clip-path="url(#pe0f359e0cd)">
     <use xlink:href="#m126d2c0a16" x="89.169231" y="236.336517" style="fill: #cc78bc; stroke: #ffffff; stroke-width: 0.75"/>
    </g>
   </g>
   <g id="line2d_38">
    <path d="M 89.169231 236.336517 
L 140.676923 242.115937 
" clip-path="url(#pe0f359e0cd)" style="fill: none; stroke-dasharray: 5.55,2.4; stroke-dashoffset: 0; stroke: #cc78bc; stroke-width: 1.5"/>
   </g>
   <g id="patch_3">
    <path d="M 72 280.8 
L 72 43.2 
" style="fill: none; stroke: #000000; stroke-width: 0.8; stroke-linejoin: miter; stroke-linecap: square"/>
   </g>
   <g id="patch_4">
    <path d="M 518.4 280.8 
L 518.4 43.2 
" style="fill: none; stroke: #000000; stroke-width: 0.8; stroke-linejoin: miter; stroke-linecap: square"/>
   </g>
   <g id="patch_5">
    <path d="M 72 280.8 
L 518.4 280.8 
" style="fill: none; stroke: #000000; stroke-width: 0.8; stroke-linejoin: miter; stroke-linecap: square"/>
   </g>
   <g id="patch_6">
    <path d="M 72 43.2 
L 518.4 43.2 
" style="fill: none; stroke: #000000; stroke-width: 0.8; stroke-linejoin: miter; stroke-linecap: square"/>
   </g>
   <g id="PathCollection_7">
    <defs>
     <path id="m1af571ec6b" d="M -2.236068 4.472136 
L 0 2.236068 
L 2.236068 4.472136 
L 4.472136 2.236068 
L 2.236068 0 
L 4.472136 -2.236068 
L 2.236068 -4.472136 
L 0 -2.236068 
L -2.236068 -4.472136 
L -4.472136 -2.236068 
L -2.236068 0 
L -4.472136 2.236068 
z
" style="stroke: #ffffff; stroke-width: 0.75"/>
    </defs>
    <g clip-path="url(#pe0f359e0cd)">
     <use xlink:href="#m1af571ec6b" x="175.015385" y="135.8584" style="fill: #029e73; stroke: #ffffff; stroke-width: 0.75"/>
     <use xlink:href="#m1af571ec6b" x="278.030769" y="173.476297" style="fill: #029e73; stroke: #ffffff; stroke-width: 0.75"/>
     <use xlink:href="#m1af571ec6b" x="346.707692" y="251.687014" style="fill: #029e73; stroke: #ffffff; stroke-width: 0.75"/>
     <use xlink:href="#m1af571ec6b" x="381.046154" y="204.705332" style="fill: #029e73; stroke: #ffffff; stroke-width: 0.75"/>
     <use xlink:href="#m1af571ec6b" x="415.384615" y="168.449651" style="fill: #029e73; stroke: #ffffff; stroke-width: 0.75"/>
    </g>
   </g>
   <g id="PathCollection_8">
    <g clip-path="url(#pe0f359e0cd)">
     <use xlink:href="#m1af571ec6b" x="501.230769" y="239.996864" style="fill: #029e73; stroke: #ffffff; stroke-width: 0.75"/>
    </g>
   </g>
   <g id="PathCollection_9">
    <g clip-path="url(#pe0f359e0cd)">
     <use xlink:href="#m1af571ec6b" x="89.169231" y="248.81525" style="fill: #029e73; stroke: #ffffff; stroke-width: 0.75"/>
    </g>
   </g>
   <g id="line2d_39">
    <path d="M 140.676923 170.958917 
L 175.015385 242.994313 
L 209.353846 174.096666 
L 243.692308 117.919201 
L 278.030769 181.789621 
L 312.369231 151.769689 
L 346.707692 192.175629 
L 381.046154 231.51083 
L 415.384615 203.738256 
L 449.723077 54 
" clip-path="url(#pe0f359e0cd)" style="fill: none; stroke: #0173b2; stroke-opacity: 0.7; stroke-width: 1.5; stroke-linecap: square"/>
   </g>
   <g id="PathCollection_10">
    <defs>
     <path id="mdf42768dc4" d="M 0 -4.472136 
L -3.872983 -2.236068 
L -3.872983 2.236068 
L -0 4.472136 
L 3.872983 2.236068 
L 3.872983 -2.236068 
z
" style="stroke: #ffffff; stroke-width: 0.75"/>
    </defs>
    <g clip-path="url(#pe0f359e0cd)">
     <use xlink:href="#mdf42768dc4" x="140.676923" y="170.958917" style="fill: #0173b2; stroke: #ffffff; stroke-width: 0.75"/>
     <use xlink:href="#mdf42768dc4" x="175.015385" y="242.994313" style="fill: #0173b2; stroke: #ffffff; stroke-width: 0.75"/>
     <use xlink:href="#mdf42768dc4" x="209.353846" y="174.096666" style="fill: #0173b2; stroke: #ffffff; stroke-width: 0.75"/>
     <use xlink:href="#mdf42768dc4" x="243.692308" y="117.919201" style="fill: #0173b2; stroke: #ffffff; stroke-width: 0.75"/>
     <use xlink:href="#mdf42768dc4" x="278.030769" y="181.789621" style="fill: #0173b2; stroke: #ffffff; stroke-width: 0.75"/>
     <use xlink:href="#mdf42768dc4" x="312.369231" y="151.769689" style="fill: #0173b2; stroke: #ffffff; stroke-width: 0.75"/>
     <use xlink:href="#mdf42768dc4" x="346.707692" y="192.175629" style="fill: #0173b2; stroke: #ffffff; stroke-width: 0.75"/>
     <use xlink:href="#mdf42768dc4" x="381.046154" y="231.51083" style="fill: #0173b2; stroke: #ffffff; stroke-width: 0.75"/>
     <use xlink:href="#mdf42768dc4" x="415.384615" y="203.738256" style="fill: #0173b2; stroke: #ffffff; stroke-width: 0.75"/>
     <use xlink:href="#mdf42768dc4" x="449.723077" y="54" style="fill: #0173b2; stroke: #ffffff; stroke-width: 0.75"/>
    </g>
   </g>
   <g id="PathCollection_11">
    <g clip-path="url(#pe0f359e0cd)">
     <use xlink:href="#mdf42768dc4" x="501.230769" y="61.440397" style="fill: #0173b2; stroke: #ffffff; stroke-width: 0.75"/>
    </g>
   </g>
   <g id="line2d_40">
    <path d="M 449.723077 54 
L 501.230769 61.440397 
" clip-path="url(#pe0f359e0cd)" style="fill: none; stroke-dasharray: 5.55,2.4; stroke-dashoffset: 0; stroke: #0173b2; stroke-width: 1.5"/>
   </g>
   <g id="PathCollection_12">
    <g clip-path="url(#pe0f359e0cd)">
     <use xlink:href="#mdf42768dc4" x="89.169231" y="263.313228" style="fill: #0173b2; stroke: #ffffff; stroke-width: 0.75"/>
    </g>
   </g>
   <g id="line2d_41">
    <path d="M 89.169231 263.313228 
L 140.676923 170.958917 
" clip-path="url(#pe0f359e0cd)" style="fill: none; stroke-dasharray: 5.55,2.4; stroke-dashoffset: 0; stroke: #0173b2; stroke-width: 1.5"/>
   </g>
   <g id="legend_1">
    <g id="PathCollection_13">
     <defs>
      <path id="ma28d84adea" d="M -6.708204 6.708204 
L 6.708204 6.708204 
L 6.708204 -6.708204 
L -6.708204 -6.708204 
z
" style="stroke: #ffffff; stroke-width: 0.75"/>
     </defs>
     <g>
      <use xlink:href="#ma28d84adea" x="65.223281" y="344.41875" style="fill: #de8f05; stroke: #ffffff; stroke-width: 0.75"/>
     </g>
    </g>
    <g id="text_19">
     <!-- Ours -->
     <g transform="translate(74.223281 350.46)scale(0.18 -0.18)">
      <defs>
       <path id="LiberationSerif-4f" d="M 916 2100 
Q 916 1663 981 1309 
Q 1047 956 1206 706 
Q 1366 456 1634 320 
Q 1903 184 2309 184 
Q 2716 184 2984 320 
Q 3253 456 3414 706 
Q 3575 956 3640 1309 
Q 3706 1663 3706 2100 
Q 3706 2534 3640 2884 
Q 3575 3234 3414 3479 
Q 3253 3725 2984 3856 
Q 2716 3988 2309 3988 
Q 1903 3988 1634 3856 
Q 1366 3725 1206 3479 
Q 1047 3234 981 2884 
Q 916 2534 916 2100 
z
M 263 2100 
Q 263 2656 398 3059 
Q 534 3463 793 3725 
Q 1053 3988 1434 4113 
Q 1816 4238 2309 4238 
Q 2788 4238 3167 4113 
Q 3547 3988 3812 3725 
Q 4078 3463 4218 3059 
Q 4359 2656 4359 2100 
Q 4359 1544 4218 1136 
Q 4078 728 3812 462 
Q 3547 197 3167 67 
Q 2788 -63 2309 -63 
Q 1831 -63 1453 67 
Q 1075 197 809 462 
Q 544 728 403 1136 
Q 263 1544 263 2100 
z
" transform="scale(0.015625)"/>
       <path id="LiberationSerif-75" d="M 978 838 
Q 978 578 1095 439 
Q 1213 300 1478 300 
Q 1653 300 1840 323 
Q 2028 347 2203 397 
L 2203 2719 
L 1759 2797 
L 1759 2938 
L 2719 2938 
L 2719 219 
L 3091 141 
L 3091 0 
L 2234 0 
L 2209 238 
Q 2119 188 1994 134 
Q 1869 81 1733 37 
Q 1597 -6 1459 -34 
Q 1322 -63 1209 -63 
Q 1041 -63 903 -16 
Q 766 31 667 134 
Q 569 238 514 402 
Q 459 566 459 800 
L 459 2719 
L 84 2797 
L 84 2938 
L 978 2938 
L 978 838 
z
" transform="scale(0.015625)"/>
      </defs>
      <use xlink:href="#LiberationSerif-4f"/>
      <use xlink:href="#LiberationSerif-75" x="72.216797"/>
      <use xlink:href="#LiberationSerif-72" x="122.216797"/>
      <use xlink:href="#LiberationSerif-73" x="155.517578"/>
     </g>
    </g>
    <g id="PathCollection_14">
     <defs>
      <path id="maf750bdd95" d="M 0 -6.708204 
L -5.809475 -3.354102 
L -5.809475 3.354102 
L -0 6.708204 
L 5.809475 3.354102 
L 5.809475 -3.354102 
z
" style="stroke: #ffffff; stroke-width: 0.75"/>
     </defs>
     <g>
      <use xlink:href="#maf750bdd95" x="127.222031" y="344.41875" style="fill: #0173b2; stroke: #ffffff; stroke-width: 0.75"/>
     </g>
    </g>
    <g id="text_20">
     <!-- iMESA -->
     <g transform="translate(136.222031 350.46)scale(0.18 -0.18)">
      <defs>
       <path id="LiberationSerif-4d" d="M 2694 0 
L 2584 0 
L 1050 3603 
L 1050 250 
L 1613 166 
L 1613 0 
L 184 0 
L 184 166 
L 722 250 
L 722 3944 
L 184 4025 
L 184 4191 
L 1453 4191 
L 2816 1003 
L 4303 4191 
L 5503 4191 
L 5503 4025 
L 4966 3944 
L 4966 250 
L 5503 166 
L 5503 0 
L 3803 0 
L 3803 166 
L 4366 250 
L 4366 3603 
L 2694 0 
z
" transform="scale(0.015625)"/>
       <path id="LiberationSerif-53" d="M 434 1128 
L 638 1128 
L 747 563 
Q 806 488 912 420 
Q 1019 353 1148 301 
Q 1278 250 1422 220 
Q 1566 191 1703 191 
Q 1941 191 2116 255 
Q 2291 319 2405 431 
Q 2519 544 2575 697 
Q 2631 850 2631 1031 
Q 2631 1256 2536 1403 
Q 2441 1550 2286 1651 
Q 2131 1753 1934 1823 
Q 1738 1894 1530 1966 
Q 1322 2038 1125 2125 
Q 928 2213 773 2347 
Q 619 2481 523 2679 
Q 428 2878 428 3169 
Q 428 3413 522 3611 
Q 616 3809 797 3948 
Q 978 4088 1242 4163 
Q 1506 4238 1844 4238 
Q 2153 4238 2431 4197 
Q 2709 4156 2944 4103 
L 2944 3231 
L 2741 3231 
L 2631 3744 
Q 2494 3844 2294 3909 
Q 2094 3975 1844 3975 
Q 1613 3975 1445 3925 
Q 1278 3875 1168 3789 
Q 1059 3703 1006 3586 
Q 953 3469 953 3334 
Q 953 3131 1048 2997 
Q 1144 2863 1298 2767 
Q 1453 2672 1651 2603 
Q 1850 2534 2058 2461 
Q 2266 2388 2464 2295 
Q 2663 2203 2817 2061 
Q 2972 1919 3067 1714 
Q 3163 1509 3163 1209 
Q 3163 919 3073 684 
Q 2984 450 2804 283 
Q 2625 116 2354 26 
Q 2084 -63 1719 -63 
Q 1525 -63 1337 -44 
Q 1150 -25 984 6 
Q 819 38 678 78 
Q 538 119 434 159 
L 434 1128 
z
" transform="scale(0.015625)"/>
      </defs>
      <use xlink:href="#LiberationSerif-69"/>
      <use xlink:href="#LiberationSerif-4d" x="27.783203"/>
      <use xlink:href="#LiberationSerif-45" x="116.699219"/>
      <use xlink:href="#LiberationSerif-53" x="177.783203"/>
      <use xlink:href="#LiberationSerif-41" x="233.398438"/>
     </g>
    </g>
    <g id="PathCollection_15">
     <defs>
      <path id="mc73dd49c54" d="M -3.354102 6.708204 
L 0 3.354102 
L 3.354102 6.708204 
L 6.708204 3.354102 
L 3.354102 0 
L 6.708204 -3.354102 
L 3.354102 -6.708204 
L 0 -3.354102 
L -3.354102 -6.708204 
L -6.708204 -3.354102 
L -3.354102 0 
L -6.708204 3.354102 
z
" style="stroke: #ffffff; stroke-width: 0.75"/>
     </defs>
     <g>
      <use xlink:href="#mc73dd49c54" x="209.231719" y="344.41875" style="fill: #029e73; stroke: #ffffff; stroke-width: 0.75"/>
     </g>
    </g>
    <g id="text_21">
     <!-- DDF-SAM2 -->
     <g transform="translate(218.231719 350.46)scale(0.18 -0.18)">
      <defs>
       <path id="LiberationSerif-44" d="M 3713 2125 
Q 3713 2588 3584 2923 
Q 3456 3259 3217 3478 
Q 2978 3697 2640 3803 
Q 2303 3909 1888 3909 
L 1325 3909 
L 1325 294 
Q 1419 288 1528 284 
Q 1638 281 1753 276 
Q 1869 272 1986 270 
Q 2103 269 2216 269 
Q 2613 269 2895 386 
Q 3178 503 3359 736 
Q 3541 969 3627 1316 
Q 3713 1663 3713 2125 
z
M 2088 4191 
Q 2609 4191 3029 4081 
Q 3450 3972 3747 3725 
Q 4044 3478 4205 3084 
Q 4366 2691 4366 2119 
Q 4366 1606 4234 1209 
Q 4103 813 3837 541 
Q 3572 269 3167 128 
Q 2763 -13 2216 -13 
Q 2038 -13 1827 -11 
Q 1616 -9 1412 -6 
Q 1209 -3 1026 -1 
Q 844 0 722 0 
L 184 0 
L 184 166 
L 722 250 
L 722 3944 
L 184 4025 
L 184 4191 
L 2088 4191 
z
" transform="scale(0.015625)"/>
       <path id="LiberationSerif-46" d="M 1325 1881 
L 1325 250 
L 2022 166 
L 2022 0 
L 225 0 
L 225 166 
L 722 250 
L 722 3944 
L 184 4025 
L 184 4191 
L 3328 4191 
L 3328 3188 
L 3122 3188 
L 3022 3866 
Q 2922 3878 2780 3887 
Q 2638 3897 2491 3901 
Q 2344 3906 2212 3907 
Q 2081 3909 2009 3909 
L 1325 3909 
L 1325 2163 
L 2559 2163 
L 2656 2663 
L 2847 2663 
L 2847 1375 
L 2656 1375 
L 2559 1881 
L 1325 1881 
z
" transform="scale(0.015625)"/>
       <path id="LiberationSerif-2d" d="M 238 1269 
L 238 1747 
L 1900 1747 
L 1900 1269 
L 238 1269 
z
" transform="scale(0.015625)"/>
      </defs>
      <use xlink:href="#LiberationSerif-44"/>
      <use xlink:href="#LiberationSerif-44" x="72.216797"/>
      <use xlink:href="#LiberationSerif-46" x="144.433594"/>
      <use xlink:href="#LiberationSerif-2d" x="200.048828"/>
      <use xlink:href="#LiberationSerif-53" x="233.349609"/>
      <use xlink:href="#LiberationSerif-41" x="288.964844"/>
      <use xlink:href="#LiberationSerif-4d" x="361.181641"/>
      <use xlink:href="#LiberationSerif-32" x="450.097656"/>
     </g>
    </g>
    <g id="PathCollection_16">
     <defs>
      <path id="m640e3b3eb3" d="M -0 9.486833 
L 5.6921 0 
L 0 -9.486833 
L -5.6921 -0 
z
" style="stroke: #ffffff; stroke-width: 0.75"/>
     </defs>
     <g>
      <use xlink:href="#m640e3b3eb3" x="326.248594" y="344.41875" style="fill: #cc78bc; stroke: #ffffff; stroke-width: 0.75"/>
     </g>
    </g>
    <g id="text_22">
     <!-- Independent -->
     <g transform="translate(335.248594 350.46)scale(0.18 -0.18)">
      <defs>
       <path id="LiberationSerif-49" d="M 1369 250 
L 1906 166 
L 1906 0 
L 231 0 
L 231 166 
L 769 250 
L 769 3944 
L 231 4025 
L 231 4191 
L 1906 4191 
L 1906 4025 
L 1369 3944 
L 1369 250 
z
" transform="scale(0.015625)"/>
       <path id="LiberationSerif-64" d="M 2259 219 
Q 2122 109 1917 23 
Q 1713 -63 1434 -63 
Q 231 -63 231 1441 
Q 231 1806 311 2098 
Q 391 2391 556 2595 
Q 722 2800 975 2908 
Q 1228 3016 1575 3016 
Q 1734 3016 1914 2997 
Q 2094 2978 2259 2944 
Q 2253 2978 2250 3045 
Q 2247 3113 2245 3189 
Q 2244 3266 2242 3341 
Q 2241 3416 2241 3463 
L 2241 4225 
L 1747 4300 
L 1747 4441 
L 2759 4441 
L 2759 219 
L 3122 141 
L 3122 0 
L 2297 0 
L 2259 219 
z
M 794 1441 
Q 794 1113 851 888 
Q 909 663 1015 523 
Q 1122 384 1272 323 
Q 1422 263 1606 263 
Q 1794 263 1959 298 
Q 2125 334 2241 384 
L 2241 2706 
Q 2109 2731 1937 2745 
Q 1766 2759 1606 2759 
Q 1191 2759 992 2425 
Q 794 2091 794 1441 
z
" transform="scale(0.015625)"/>
       <path id="LiberationSerif-70" d="M 475 2719 
L 141 2797 
L 141 2938 
L 966 2938 
L 972 2766 
Q 1038 2822 1127 2867 
Q 1216 2913 1319 2945 
Q 1422 2978 1537 2997 
Q 1653 3016 1772 3016 
Q 2047 3016 2265 2919 
Q 2484 2822 2637 2630 
Q 2791 2438 2870 2155 
Q 2950 1872 2950 1503 
Q 2950 1144 2869 855 
Q 2788 566 2625 361 
Q 2463 156 2217 46 
Q 1972 -63 1644 -63 
Q 1484 -63 1307 -45 
Q 1131 -28 972 6 
Q 975 -31 979 -79 
Q 984 -128 986 -179 
Q 988 -231 989 -275 
Q 991 -319 991 -347 
L 991 -1141 
L 1503 -1216 
L 1503 -1363 
L 103 -1363 
L 103 -1216 
L 475 -1141 
L 475 2719 
z
M 2388 1503 
Q 2388 1822 2334 2047 
Q 2281 2272 2179 2414 
Q 2078 2556 1931 2622 
Q 1784 2688 1600 2688 
Q 1450 2688 1279 2661 
Q 1109 2634 991 2584 
L 991 238 
Q 1122 213 1281 198 
Q 1441 184 1600 184 
Q 2013 184 2200 526 
Q 2388 869 2388 1503 
z
" transform="scale(0.015625)"/>
      </defs>
      <use xlink:href="#LiberationSerif-49"/>
      <use xlink:href="#LiberationSerif-6e" x="33.300781"/>
      <use xlink:href="#LiberationSerif-64" x="83.300781"/>
      <use xlink:href="#LiberationSerif-65" x="133.300781"/>
      <use xlink:href="#LiberationSerif-70" x="177.685547"/>
      <use xlink:href="#LiberationSerif-65" x="227.685547"/>
      <use xlink:href="#LiberationSerif-6e" x="272.070312"/>
      <use xlink:href="#LiberationSerif-64" x="322.070312"/>
      <use xlink:href="#LiberationSerif-65" x="372.070312"/>
      <use xlink:href="#LiberationSerif-6e" x="416.455078"/>
      <use xlink:href="#LiberationSerif-74" x="466.455078"/>
     </g>
    </g>
    <g id="PathCollection_17">
     <defs>
      <path id="m3714ba49e0" d="M 0 6.708204 
C 1.779036 6.708204 3.485448 6.001385 4.743416 4.743416 
C 6.001385 3.485448 6.708204 1.779036 6.708204 0 
C 6.708204 -1.779036 6.001385 -3.485448 4.743416 -4.743416 
C 3.485448 -6.001385 1.779036 -6.708204 0 -6.708204 
C -1.779036 -6.708204 -3.485448 -6.001385 -4.743416 -4.743416 
C -6.001385 -3.485448 -6.708204 -1.779036 -6.708204 0 
C -6.708204 1.779036 -6.001385 3.485448 -4.743416 4.743416 
C -3.485448 6.001385 -1.779036 6.708204 0 6.708204 
z
" style="stroke: #ffffff; stroke-width: 0.75"/>
     </defs>
     <g>
      <use xlink:href="#m3714ba49e0" x="442.213594" y="344.41875" style="fill: #949494; stroke: #ffffff; stroke-width: 0.75"/>
     </g>
    </g>
    <g id="text_23">
     <!-- Centralized -->
     <g transform="translate(451.213594 350.46)scale(0.18 -0.18)">
      <defs>
       <path id="LiberationSerif-43" d="M 2419 -63 
Q 1906 -63 1504 81 
Q 1103 225 826 497 
Q 550 769 406 1161 
Q 263 1553 263 2047 
Q 263 2609 408 3021 
Q 553 3434 829 3704 
Q 1106 3975 1509 4106 
Q 1913 4238 2431 4238 
Q 2647 4238 2837 4223 
Q 3028 4209 3201 4187 
Q 3375 4166 3531 4137 
Q 3688 4109 3834 4078 
L 3853 3163 
L 3647 3163 
L 3553 3706 
Q 3334 3841 3045 3914 
Q 2756 3988 2456 3988 
Q 2091 3988 1805 3888 
Q 1519 3788 1322 3561 
Q 1125 3334 1020 2964 
Q 916 2594 916 2053 
Q 916 1578 1019 1226 
Q 1122 875 1315 642 
Q 1509 409 1789 293 
Q 2069 178 2425 178 
Q 2619 178 2795 203 
Q 2972 228 3123 272 
Q 3275 316 3395 373 
Q 3516 431 3597 494 
L 3713 1119 
L 3916 1119 
L 3897 134 
Q 3766 97 3597 61 
Q 3428 25 3237 -3 
Q 3047 -31 2837 -47 
Q 2628 -63 2419 -63 
z
" transform="scale(0.015625)"/>
      </defs>
      <use xlink:href="#LiberationSerif-43"/>
      <use xlink:href="#LiberationSerif-65" x="66.699219"/>
      <use xlink:href="#LiberationSerif-6e" x="111.083984"/>
      <use xlink:href="#LiberationSerif-74" x="161.083984"/>
      <use xlink:href="#LiberationSerif-72" x="188.867188"/>
      <use xlink:href="#LiberationSerif-61" x="222.167969"/>
      <use xlink:href="#LiberationSerif-6c" x="266.552734"/>
      <use xlink:href="#LiberationSerif-69" x="294.335938"/>
      <use xlink:href="#LiberationSerif-7a" x="322.119141"/>
      <use xlink:href="#LiberationSerif-65" x="366.503906"/>
      <use xlink:href="#LiberationSerif-64" x="410.888672"/>
     </g>
    </g>
   </g>
   <g id="line2d_42">
    <path d="M 140.676923 259.860421 
L 175.015385 252.279658 
L 209.353846 263.875959 
L 243.692308 244.663331 
L 278.030769 267.42503 
L 312.369231 251.351626 
L 346.707692 266.596672 
L 381.046154 270 
L 415.384615 245.947772 
L 449.723077 261.726799 
" clip-path="url(#pe0f359e0cd)" style="fill: none; stroke: #de8f05; stroke-opacity: 0.7; stroke-width: 1.5; stroke-linecap: square"/>
   </g>
   <g id="PathCollection_18">
    <defs>
     <path id="me493c6fd05" d="M -4.472136 4.472136 
L 4.472136 4.472136 
L 4.472136 -4.472136 
L -4.472136 -4.472136 
z
" style="stroke: #ffffff; stroke-width: 0.75"/>
    </defs>
    <g clip-path="url(#pe0f359e0cd)">
     <use xlink:href="#me493c6fd05" x="140.676923" y="259.860421" style="fill: #de8f05; stroke: #ffffff; stroke-width: 0.75"/>
     <use xlink:href="#me493c6fd05" x="175.015385" y="252.279658" style="fill: #de8f05; stroke: #ffffff; stroke-width: 0.75"/>
     <use xlink:href="#me493c6fd05" x="209.353846" y="263.875959" style="fill: #de8f05; stroke: #ffffff; stroke-width: 0.75"/>
     <use xlink:href="#me493c6fd05" x="243.692308" y="244.663331" style="fill: #de8f05; stroke: #ffffff; stroke-width: 0.75"/>
     <use xlink:href="#me493c6fd05" x="278.030769" y="267.42503" style="fill: #de8f05; stroke: #ffffff; stroke-width: 0.75"/>
     <use xlink:href="#me493c6fd05" x="312.369231" y="251.351626" style="fill: #de8f05; stroke: #ffffff; stroke-width: 0.75"/>
     <use xlink:href="#me493c6fd05" x="346.707692" y="266.596672" style="fill: #de8f05; stroke: #ffffff; stroke-width: 0.75"/>
     <use xlink:href="#me493c6fd05" x="381.046154" y="270" style="fill: #de8f05; stroke: #ffffff; stroke-width: 0.75"/>
     <use xlink:href="#me493c6fd05" x="415.384615" y="245.947772" style="fill: #de8f05; stroke: #ffffff; stroke-width: 0.75"/>
     <use xlink:href="#me493c6fd05" x="449.723077" y="261.726799" style="fill: #de8f05; stroke: #ffffff; stroke-width: 0.75"/>
    </g>
   </g>
   <g id="PathCollection_19">
    <g clip-path="url(#pe0f359e0cd)">
     <use xlink:href="#me493c6fd05" x="501.230769" y="261.820442" style="fill: #de8f05; stroke: #ffffff; stroke-width: 0.75"/>
    </g>
   </g>
   <g id="line2d_43">
    <path d="M 449.723077 261.726799 
L 501.230769 261.820442 
" clip-path="url(#pe0f359e0cd)" style="fill: none; stroke-dasharray: 5.55,2.4; stroke-dashoffset: 0; stroke: #de8f05; stroke-width: 1.5"/>
   </g>
   <g id="PathCollection_20">
    <g clip-path="url(#pe0f359e0cd)">
     <use xlink:href="#me493c6fd05" x="89.169231" y="255.149243" style="fill: #de8f05; stroke: #ffffff; stroke-width: 0.75"/>
    </g>
   </g>
   <g id="line2d_44">
    <path d="M 89.169231 255.149243 
L 140.676923 259.860421 
" clip-path="url(#pe0f359e0cd)" style="fill: none; stroke-dasharray: 5.55,2.4; stroke-dashoffset: 0; stroke: #de8f05; stroke-width: 1.5"/>
   </g>
  </g>
 </g>
 <defs>
  <clipPath id="pe0f359e0cd">
   <rect x="72" y="43.2" width="446.4" height="237.6"/>
  </clipPath>
 </defs>
</svg>
